# xmcd
#
# Track frame offsets:
#	150
#	18573
#	41754
#	60444
#	82939
#	101591
#	122585
#	141260
#	155377
#	177852
#	194152
#	213842
#	245389
# Disc length: 4440 seconds
# Revision: 1
# Processed by: cddbd v1.5.1PL0 Copyright (c) Steve Scherf et al.
#
# Submitted via: libkcddb 0.21
#
DISCID=ad11560d
DTITLE=Stadio - L'amore volubile
DYEAR=2005
DGENRE=Rock
TTITLE0=Buona sorte
TTITLE1=Mi vuoi ancora
TTITLE2=L'amore è volubile
TTITLE3=Mercoledì
TTITLE4=Fine di un'estate
TTITLE5=Assolutamente sì
TTITLE6=Canzoni per parrucchiere
TTITLE7=Sinceramente
TTITLE8=Le mie poesie per te
TTITLE9=Le ultime parole famose
TTITLE10=Di nessun altro
TTITLE11=Senza parrucche
TTITLE12=
EXTD=
EXTT0=
EXTT1=
EXTT2=
EXTT3=
EXTT4=
EXTT5=
EXTT6=
EXTT7=
EXTT8=
EXTT9=
EXTT10=
EXTT11=
EXTT12=Traccia dati
PLAYORDER=
